<?xml version="1.0" encoding="UTF-8"?>
<svg width="107px" height="81px" viewBox="0 0 107 81" version="1.1" xmlns="http://www.w3.org/2000/svg" xmlns:xlink="http://www.w3.org/1999/xlink">
    <!-- Generator: Sketch 41.2 (35397) - http://www.bohemiancoding.com/sketch -->
    <title>quote-icon</title>
    <desc>Created with Sketch.</desc>
    <defs/>
    <g id="Webflow-Assets" stroke="none" stroke-width="1" fill="none" fill-rule="evenodd" opacity="0.0799999982">
        <g id="Assets" transform="translate(-1018.000000, -425.000000)" fill="#FFFFFF">
            <path d="M1035.63493,468 L1027,468 C1022.194,468 1018,463.901367 1018,459 L1018,434 C1018,429.098679 1022.19395,425 1027,425 L1053,425 C1057.806,425 1062,429.098633 1062,434 L1062,457 C1062,457 1062.0501,457.744379 1061.99966,459.076815 C1061.99769,459.296677 1061.98729,459.514884 1061.96879,459.731136 C1061.71688,464.212107 1060.37489,473.665556 1054,484 C1045.33599,498.952307 1029.45329,504.409785 1029.45329,504.409785 C1022.02324,508.04946 1019.50566,505.268704 1023.7572,498.15107 C1023.7572,498.15107 1032.12768,485.047738 1035,477 C1035.67906,474.568732 1035.78868,471.286505 1035.63493,468 Z M1097.63493,468 L1089,468 C1084.194,468 1080,463.901367 1080,459 L1080,434 C1080,429.098679 1084.19395,425 1089,425 L1115,425 C1119.806,425 1124,429.098633 1124,434 L1124,457 C1124,457 1124.0501,457.744379 1123.99966,459.076815 C1123.99769,459.296677 1123.98729,459.514884 1123.96879,459.731136 C1123.71688,464.212107 1122.37489,473.665556 1116,484 C1107.33599,498.952307 1091.45329,504.409785 1091.45329,504.409785 C1084.02324,508.04946 1081.50566,505.268704 1085.7572,498.15107 C1085.7572,498.15107 1094.12768,485.047738 1097,477 C1097.67906,474.568732 1097.78868,471.286505 1097.63493,468 Z" id="quote-icon"/>
        </g>
    </g>
</svg>